<svg xmlns="http://www.w3.org/2000/svg" width="1200" height="800" viewBox="0 0 1200 800">
  <defs>
    <linearGradient id="bg" x1="0" y1="0" x2="1" y2="1">
      <stop offset="0%" stop-color="#FFF1F2"/>
      <stop offset="55%" stop-color="#FFFFFF"/>
      <stop offset="100%" stop-color="#F5F5F7"/>
    </linearGradient>
    <radialGradient id="halo" cx="40%" cy="35%" r="75%">
      <stop offset="0%" stop-color="#FF2D55" stop-opacity="0.18"/>
      <stop offset="60%" stop-color="#FF2D55" stop-opacity="0.05"/>
      <stop offset="100%" stop-color="#FF2D55" stop-opacity="0"/>
    </radialGradient>
    <filter id="soft" x="-20%" y="-20%" width="140%" height="140%">
      <feGaussianBlur stdDeviation="18"/>
    </filter>
  </defs>
  <rect width="1200" height="800" fill="url(#bg)"/>
  <circle cx="470" cy="270" r="420" fill="url(#halo)"/>
  <circle cx="980" cy="210" r="230" fill="#34C759" opacity="0.06" filter="url(#soft)"/>
  <circle cx="980" cy="660" r="260" fill="#0066CC" opacity="0.06" filter="url(#soft)"/>
  <g opacity="0.9">
    <path d="M360 610c60 68 140 104 240 104 180 0 320-122 320-290 0-104-54-192-136-240" fill="none" stroke="#1D1D1F" stroke-opacity="0.18" stroke-width="22" stroke-linecap="round"/>
    <path d="M784 184c-40-18-86-28-136-28-156 0-280 94-308 230" fill="none" stroke="#FF2D55" stroke-opacity="0.25" stroke-width="22" stroke-linecap="round"/>
    <circle cx="560" cy="520" r="11" fill="#FF2D55" opacity="0.55"/>
  </g>
</svg>
