<svg xmlns="http://www.w3.org/2000/svg" width="1200" height="800" viewBox="0 0 1200 800">
  <defs>
    <linearGradient id="bg" x1="0" y1="0" x2="1" y2="1">
      <stop offset="0%" stop-color="#FFF7ED"/>
      <stop offset="55%" stop-color="#FFFFFF"/>
      <stop offset="100%" stop-color="#F5F5F7"/>
    </linearGradient>
    <radialGradient id="halo" cx="40%" cy="30%" r="75%">
      <stop offset="0%" stop-color="#FF9500" stop-opacity="0.18"/>
      <stop offset="60%" stop-color="#FF9500" stop-opacity="0.05"/>
      <stop offset="100%" stop-color="#FF9500" stop-opacity="0"/>
    </radialGradient>
    <filter id="soft" x="-20%" y="-20%" width="140%" height="140%">
      <feGaussianBlur stdDeviation="18"/>
    </filter>
  </defs>
  <rect width="1200" height="800" fill="url(#bg)"/>
  <circle cx="460" cy="250" r="410" fill="url(#halo)"/>
  <circle cx="980" cy="160" r="220" fill="#FF2D55" opacity="0.06" filter="url(#soft)"/>
  <circle cx="980" cy="650" r="260" fill="#0066CC" opacity="0.06" filter="url(#soft)"/>
  <g opacity="0.9">
    <path d="M360 600c40 70 120 110 220 110 150 0 270-96 270-244 0-150-120-246-270-246-104 0-186 44-228 118" fill="none" stroke="#1D1D1F" stroke-opacity="0.18" stroke-width="22" stroke-linecap="round"/>
    <path d="M352 338c-18 34-28 76-28 128" fill="none" stroke="#FF9500" stroke-opacity="0.25" stroke-width="22" stroke-linecap="round"/>
    <circle cx="590" cy="470" r="11" fill="#FF9500" opacity="0.55"/>
  </g>
</svg>
