<svg xmlns="http://www.w3.org/2000/svg" width="1200" height="800" viewBox="0 0 1200 800">
  <defs>
    <linearGradient id="bg" x1="0" y1="0" x2="1" y2="1">
      <stop offset="0%" stop-color="#E8F0FE"/>
      <stop offset="45%" stop-color="#FFFFFF"/>
      <stop offset="100%" stop-color="#F5F5F7"/>
    </linearGradient>
    <radialGradient id="halo" cx="30%" cy="35%" r="70%">
      <stop offset="0%" stop-color="#0066CC" stop-opacity="0.18"/>
      <stop offset="60%" stop-color="#0066CC" stop-opacity="0.05"/>
      <stop offset="100%" stop-color="#0066CC" stop-opacity="0"/>
    </radialGradient>
    <filter id="soft" x="-20%" y="-20%" width="140%" height="140%">
      <feGaussianBlur stdDeviation="18"/>
    </filter>
  </defs>
  <rect width="1200" height="800" fill="url(#bg)"/>
  <circle cx="320" cy="260" r="360" fill="url(#halo)"/>
  <circle cx="950" cy="120" r="220" fill="#0066CC" opacity="0.08" filter="url(#soft)"/>
  <circle cx="1040" cy="640" r="260" fill="#34C759" opacity="0.08" filter="url(#soft)"/>
  <g opacity="0.9">
    <path d="M270 520c0-142 90-250 220-250 90 0 158 46 194 120" fill="none" stroke="#1D1D1F" stroke-opacity="0.18" stroke-width="22" stroke-linecap="round"/>
    <path d="M684 390c10 26 16 56 16 89 0 128-84 230-210 230-126 0-220-102-220-230" fill="none" stroke="#0066CC" stroke-opacity="0.25" stroke-width="22" stroke-linecap="round"/>
    <circle cx="520" cy="352" r="10" fill="#0066CC" opacity="0.55"/>
  </g>
</svg>
