<svg xmlns="http://www.w3.org/2000/svg" width="1200" height="800" viewBox="0 0 1200 800">
  <defs>
    <linearGradient id="bg" x1="0" y1="0" x2="1" y2="1">
      <stop offset="0%" stop-color="#ECFDF5"/>
      <stop offset="55%" stop-color="#FFFFFF"/>
      <stop offset="100%" stop-color="#F5F5F7"/>
    </linearGradient>
    <radialGradient id="halo" cx="55%" cy="35%" r="75%">
      <stop offset="0%" stop-color="#34C759" stop-opacity="0.18"/>
      <stop offset="60%" stop-color="#34C759" stop-opacity="0.05"/>
      <stop offset="100%" stop-color="#34C759" stop-opacity="0"/>
    </radialGradient>
    <filter id="soft" x="-20%" y="-20%" width="140%" height="140%">
      <feGaussianBlur stdDeviation="18"/>
    </filter>
  </defs>
  <rect width="1200" height="800" fill="url(#bg)"/>
  <circle cx="700" cy="260" r="410" fill="url(#halo)"/>
  <circle cx="230" cy="190" r="230" fill="#0066CC" opacity="0.06" filter="url(#soft)"/>
  <circle cx="240" cy="650" r="280" fill="#FFCC00" opacity="0.06" filter="url(#soft)"/>
  <g opacity="0.9">
    <path d="M430 520c0-116 76-204 170-204 96 0 170 88 170 204 0 110-70 190-170 190-98 0-170-80-170-190z" fill="none" stroke="#1D1D1F" stroke-opacity="0.18" stroke-width="22" stroke-linejoin="round"/>
    <path d="M520 430c24-26 54-40 90-40 36 0 66 14 90 40" fill="none" stroke="#34C759" stroke-opacity="0.25" stroke-width="22" stroke-linecap="round"/>
    <circle cx="600" cy="520" r="11" fill="#34C759" opacity="0.55"/>
  </g>
</svg>
